# xmcd
#
# Track frame offsets: 
#        150
#        29592
#        53730
#        86127
#        110907
#        145415
#        167622
#        191712
#        219872
#        231617
#        247712
#        263920
#        272377
#
# Disc length: 4253 seconds
#
# Revision: 2
# Processed by: cddbd v1.5.2PL0 Copyright (c) Steve Scherf et al.
# Submitted via: ExactAudioCopyFreeDBPlugin 1.0
#
DISCID=bc109b0d
DTITLE=Various Artist - The Blues In Paradise - Live from the Honolulu R&B Fe
DTITLE=stival
DYEAR=1994
DGENRE=Blues
TTITLE0=The Blues Society House Band - Home at Last
TTITLE1=Backstreet - Big Legged Woman
TTITLE2=Backstreet - Jelly Jelly
TTITLE3=Sunday Jam - Further on Down the Road
TTITLE4=Sunday Jam - I'm Comin Home
TTITLE5=The Strangers - Cadillac Walk
TTITLE6=The Harp Jam Band - Last Night
TTITLE7=The Harp Jam Band - On the Spot
TTITLE8=The Eric Petersen Band - There Oughta Be a Law
TTITLE9=Keith Olson and The Renovators - Love Rears Up It's Ugly Head
TTITLE10=Big Dawg - Them Changes
TTITLE11=Big Dawg - I Got You (I Feel Good)
TTITLE12=The Honolulu Blues Band - Do You Know What Its Like
EXTD=
EXTT0=
EXTT1=
EXTT2=
EXTT3=
EXTT4=
EXTT5=
EXTT6=
EXTT7=
EXTT8=
EXTT9=
EXTT10=
EXTT11=
EXTT12=
PLAYORDER=
